<svg xmlns="http://www.w3.org/2000/svg" width="64" height="25" fill="none" class="svg-icon" style="color:#0454f2"><g fill-rule="evenodd"><ellipse cx="30.5" cy="23.5" fill="#E5E5E5" rx="28.5" ry="1.5"/><path fill="#EBEBEB" stroke="currentColor" d="M39.454 6.846a3.13 3.13 0 0 0-.52 1.424h-20.9c-1.91 0-3.09-.057-4.11-.293 1.052-.75 2.259-1.585 3.528-2.287 1.625-.9 3.288-1.545 4.8-1.545h4.021l3.9-.002c3.422 0 6.38 1.15 9.28 2.703Z"/><path fill="currentColor" d="M7.02 20.832c-3.19 0-6.537-2.135-6.68-2.227l-.326-.21v-4.798l.104-.17c.163-.27.59-1.117.59-1.792l.186-4.987 6.892-.445.251-.116C11.421 4.498 17.721 1.54 21.31 1.54h10.207c1.872.16 3.464.443 4.79.848 2.698.822 8.776 4.43 9.792 5.04.958.11 6.04.724 10.206 1.777 4.928 1.245 6.6 3.2 6.796 4.06l.432 6.987-.6.136c-1.163.267-2.114.442-4.656.442h-2.514v-1.418h2.514c1.949 0 2.867-.102 3.732-.274l-.321-5.678c-.093-.21-1.469-1.803-5.737-2.882-4.495-1.136-10.114-1.755-10.169-1.76l-.295-.1c-.069-.04-6.887-4.148-9.602-4.975-1.229-.375-2.721-.64-4.43-.788l-10.145.002c-3.267 0-9.377 2.87-12.66 4.41l-.633.241-5.74.372-.138 3.682c.002.946-.472 1.916-.692 2.318v3.632c.89.515 3.486 1.831 5.745 1.801l2.012-.001v1.418H7.21c-.062.002-.126.002-.19.002Zm10.007-.002h30.91v-1.418h-30.91v1.418Z" clip-rule="evenodd"/><path fill="currentColor" d="M1.475 10.958a78.424 78.424 0 0 0-.052 1.87h.903c1.165 0 2.708-.873 2.755-1.87v-.92H1.443v.92h.032ZM57.642 12.645l1.368 2.428a3.619 3.619 0 0 1 1.617-.418h.033c.713.008 1.424 0 2.134 0l-.027-.113c-.057-.237-.736-1.385-1.436-1.897h-3.689ZM30.318 11.618h3.302v-.945h-3.302v.945ZM15.638 11.618h3.303v-.945h-3.303v.945ZM21.763 16.56v1.21h22.45l-22.45-1.21ZM61.179 18.018h1.612v-.945h-1.612v.945Z" clip-rule="evenodd"/><path fill="currentColor" d="M60.923 16.767h-.707a.508.508 0 0 0-.51.503v.55c0 .277.228.503.51.503h.707c.281 0 .51-.226.51-.503v-.55a.508.508 0 0 0-.51-.503ZM40.758 7.147l-.012.011c-.399.387-.611.857-.631 1.402a.666.666 0 0 0 .195.505.68.68 0 0 0 .503.212h1.584c.259 0 .481-.13.608-.355a.668.668 0 0 0-.012-.699 2.858 2.858 0 0 0-1.516-1.235.694.694 0 0 0-.72.159Z" clip-rule="evenodd"/><path fill="currentColor" d="M42.055 9.987a.475.475 0 0 1-.386-.194l-.887-1.201a.47.47 0 0 1 .104-.66.48.48 0 0 1 .667.103l.887 1.202a.47.47 0 0 1-.385.75ZM1.134 18.253v1.995h5.253v-.156c-2.19-.2-4.376-1.335-5.253-1.839ZM13.115 12.29h.002c1.672 0 3.195.678 4.3 1.772l.003.001a5.981 5.981 0 0 1 1.79 4.257v2.51h-2.274c.381-.647.6-1.398.6-2.2 0-2.415-1.979-4.373-4.42-4.373s-4.42 1.958-4.42 4.373c0 .802.217 1.553.6 2.2H7.021v-2.51a5.98 5.98 0 0 1 1.79-4.257l.002-.001a6.107 6.107 0 0 1 4.301-1.772Z" clip-rule="evenodd"/><path fill="currentColor" d="M9.467 15.02a5.175 5.175 0 0 1 3.65-1.495 5.17 5.17 0 0 1 3.644 1.495l.004.002a5.065 5.065 0 0 1 0 7.218h-.004a5.17 5.17 0 0 1-3.644 1.497 5.17 5.17 0 0 1-3.65-1.497 5.063 5.063 0 0 1 0-7.218v-.002Zm3.65.04c-1.993 0-3.608 1.598-3.608 3.57 0 1.972 1.615 3.57 3.608 3.57 1.99 0 3.605-1.598 3.605-3.57 0-1.972-1.615-3.57-3.605-3.57Z" clip-rule="evenodd"/><path fill="currentColor" d="M13.117 19.925c.719 0 1.307-.582 1.307-1.295 0-.712-.588-1.293-1.307-1.293-.721 0-1.307.581-1.307 1.293 0 .713.586 1.295 1.307 1.295ZM51.85 12.29c1.674 0 3.197.678 4.302 1.772l.003.001a5.987 5.987 0 0 1 1.79 4.257v2.51h-2.273c.38-.647.598-1.398.598-2.2 0-2.415-1.978-4.373-4.42-4.373-2.44 0-4.42 1.958-4.42 4.373 0 .802.218 1.553.599 2.2h-2.272v-2.51c0-1.655.685-3.163 1.788-4.257l.004-.001a6.108 6.108 0 0 1 4.301-1.772Z" clip-rule="evenodd"/><path fill="currentColor" d="M48.202 15.02a5.171 5.171 0 0 1 3.648-1.495 5.17 5.17 0 0 1 3.646 1.495l.004.002a5.066 5.066 0 0 1 0 7.218h-.004a5.171 5.171 0 0 1-3.646 1.497 5.165 5.165 0 0 1-3.648-1.497 5.064 5.064 0 0 1 0-7.218v-.002Zm3.648.04c-1.992 0-3.606 1.598-3.606 3.57 0 1.972 1.614 3.57 3.606 3.57 1.992 0 3.608-1.598 3.608-3.57 0-1.972-1.615-3.57-3.608-3.57Z" clip-rule="evenodd"/><path fill="currentColor" d="M51.852 19.925c.72 0 1.307-.582 1.307-1.295 0-.712-.588-1.293-1.307-1.293-.72 0-1.307.581-1.307 1.293 0 .713.586 1.295 1.307 1.295Z" clip-rule="evenodd"/></g></svg>