<svg xmlns="http://www.w3.org/2000/svg" width="68" height="25" fill="none" class="icon" style="color:#0454f2"><g fill-rule="evenodd"><path fill="#EBEBEB" stroke="currentColor" d="M40.409 2.901c2 .194 3.668 1.13 5.294 2.32l-.025.024-.007.011c-.328.344-.522.881-.64 1.341a7.335 7.335 0 0 0-.172.94l-2.107.004c-5.565.01-10.674.02-16.505.022l.686-4.662H40.41Z"/><path fill="currentColor" d="M6.897 20.343c-2.725 0-5.994-1.267-6.135-1.322l-.397-.156V13.62l.188-.184c.272-.268.832-.977.832-1.458l.053-1.032c.038-.71.084-1.532.106-2.268.018-.507.788-1.429 1.585-1.714l.212-.036h18.9l.953-4.886A1.88 1.88 0 0 1 25.035.526L40.49.525c3.578.312 5.738 2.06 8.023 3.912 1.056.853 2.144 1.734 3.43 2.532.566.053 1.384.084 2.336.12 5.724.218 10.91.624 11.481 3.165l.556 4.571c.34.235.82.691.82 1.385v1.963c0 .543-.065 1.087-.539 1.396-.906.57-1.965.77-4.062.77h-1.157v-1.25h1.157c1.796 0 2.683-.145 3.347-.55-.017-.013.003-.126.003-.366V16.21c0-.172-.297-.382-.416-.437l-.316-.146-.624-5.16c-.397-1.75-7.083-2.005-10.297-2.127-1.072-.041-1.976-.077-2.563-.141l-.257-.087c-1.41-.86-2.566-1.797-3.685-2.703-2.227-1.803-4.15-3.359-7.292-3.635l-15.4.002a.623.623 0 0 0-.614.506l-1.15 5.896H3.465c-.331.165-.643.56-.697.684a40.39 40.39 0 0 1-.081 2.153l-.05.992c0 .875-.675 1.74-1.022 2.125V18c.961.34 3.497 1.122 5.495 1.09h1.686v1.248h-1.67a5.851 5.851 0 0 1-.229.005Zm10.57-.003h35.127v-1.25H17.466v1.25Z" clip-rule="evenodd"/><path fill="currentColor" d="m65.732 15.682-.513-4.78h-1.348v4.78h1.861ZM37.21 10h2.886v-.832H37.21V10ZM2.013 11.928h.552c1.27 0 2.956-.963 3.007-2.065V8.85H2.165c-.037 1.066-.115 2.28-.152 3.078ZM46.506 6.012l-.012.012c-.348.336-.534 1.59-.551 2.069a.587.587 0 0 0 .172.445c.119.124.266.187.438.187h1.382c1.48 0-.251-2.66-.803-2.853a.602.602 0 0 0-.626.14ZM22.637 16.288v1.068H48.15l-25.514-1.068Z" clip-rule="evenodd"/><path fill="currentColor" d="M49.903 19.713h-.834v-1.832c0-4.365 3.552-7.916 7.918-7.916 4.364 0 7.916 3.551 7.916 7.916v1.74h-.834v-1.74c0-3.905-3.178-7.082-7.082-7.082-3.906 0-7.084 3.178-7.084 7.082v1.832Z" clip-rule="evenodd"/><path fill="currentColor" d="M56.987 17.597a1.371 1.371 0 1 0 .001 2.743 1.371 1.371 0 0 0-.001-2.743ZM21.049 19.713h-.836v-1.832c0-3.905-3.176-7.082-7.082-7.082-3.906 0-7.082 3.178-7.082 7.082v1.694h-.836v-1.694c0-4.365 3.553-7.916 7.918-7.916s7.918 3.551 7.918 7.916v1.832Z" clip-rule="evenodd"/><path fill="currentColor" d="M56.985 11.841h.002c1.659 0 3.169.68 4.264 1.775l.002-.001a6.022 6.022 0 0 1 1.773 4.267v2.458h-.938a5.3 5.3 0 0 1-1.68 2.653 5.268 5.268 0 0 1-6.84.001l-.002.002a5.291 5.291 0 0 1-1.682-2.656h-.938v-2.458c0-1.661.679-3.173 1.773-4.267h.002a6.024 6.024 0 0 1 4.264-1.774Zm.002 3.602a3.526 3.526 0 1 0-.001 7.051 3.526 3.526 0 0 0 0-7.051Zm-43.856 0a3.526 3.526 0 1 0 .002 7.052 3.526 3.526 0 0 0-.002-7.052Zm0-3.602c1.659 0 3.17.68 4.266 1.775l.002-.001a6.023 6.023 0 0 1 1.773 4.267v2.458h-.94a5.281 5.281 0 0 1-1.68 2.653 5.267 5.267 0 0 1-6.842 0 5.3 5.3 0 0 1-1.682-2.653H7.09v-2.458a6.02 6.02 0 0 1 1.775-4.267 6.02 6.02 0 0 1 4.266-1.774Z" clip-rule="evenodd"/><path fill="currentColor" d="M13.13 17.597a1.371 1.371 0 1 0 .002 2.743 1.371 1.371 0 0 0-.001-2.743ZM25.913 10H28.8v-.832h-2.886V10Z" clip-rule="evenodd"/></g></svg>