<svg xmlns="http://www.w3.org/2000/svg" width="56" height="25" fill="none" class="icon" style="color:#0454f2"><g fill-rule="evenodd"><path fill="#EBEBEB" stroke="currentColor" d="M41.489 7.5c-.515-.453-1.016-.914-1.482-1.343-.192-.178-.38-.35-.558-.513l.337-.369-.337.37c-.274-.25-.56-.516-.852-.79-.562-.524-1.152-1.075-1.753-1.593L41.49 7.5Zm0 0a1.783 1.783 0 0 0-.156.134l-.007.007c-.344.333-.54.882-.654 1.341-.123.488-.184 1-.197 1.358v.001a1.721 1.721 0 0 0 .001.133h-.408c-1.149 0-2.87-.453-4.355-.931a43.053 43.053 0 0 1-2.306-.82V3.098M41.489 7.5l-8.082-4.403m0 0H36.4a.64.64 0 0 1 .444.165l-3.437-.165ZM9.683 8.473 7.042 6.948a.651.651 0 0 1-.34-.59v-3.26h22.917c.375 0 .681.305.682.68v4.105c0 .374-.306.68-.68.68H10.024a.632.632 0 0 1-.34-.09Z"/><path fill="currentColor" d="M4.386 20.844c-1.397 0-2.32-.539-2.85-1-.598-.52-.842-1.058-.867-1.116l-.048-.235v-3.68l.085-.14c.01-.016.129-.216.247-.5.157-.377.239-.722.239-.995.014-.278.029-.992.051-1.953.064-2.958.174-7.908.407-9.515L1.817.675h35.745l.164.135c.892.733 1.94 1.69 3.05 2.704 1.745 1.593 3.546 3.237 4.674 3.936.903.289 8.272 2.715 8.639 4.346.464 1.665.498 1.968.451 3.679.49.343.77.883.76 1.475l-.03 2.028a1.75 1.75 0 0 1-1.467 1.718l-.265.041c-.542.073-2.064.105-2.973.105h-1.994v-1.18h1.994c1.145 0 2.432-.044 2.813-.095l.22-.034a.588.588 0 0 0 .49-.575l.031-2.027a.573.573 0 0 0-.365-.555l-.376-.155-.028-.424c.056-1.929.06-2.042-.406-3.712-.431-.784-6.037-3.007-7.9-3.524l-.147-.064c-1.222-.737-3.101-2.453-4.916-4.11-1.031-.941-2.009-1.834-2.843-2.531l-34.32.025c-.222 1.533-.335 6.631-.394 9.37-.021.98-.038 1.706-.052 1.959.002.401-.11.887-.329 1.416-.089.214-.178.39-.242.507v3.216c.075.126.237.366.51.604.57.494 1.31.729 2.213.708h3.312v1.18H4.54l-.154.003Zm10.15-.002h27.336v-1.18H14.536v1.18Z" clip-rule="evenodd"/><path fill="currentColor" d="m42.096 8.411-.01.011c-.33.318-.505 1.502-.52 1.954a.556.556 0 0 0 .16.421.553.553 0 0 0 .416.177h1.305c1.396 0-.237-2.513-.758-2.693a.57.57 0 0 0-.593.13ZM32.218 11.738h2.724v-.787h-2.724v.787ZM27.878 11.032h2.725v-.786h-2.725v.786ZM5.801 11.575h9.214v-.786H5.801v.786ZM53.964 14.324c-1.349-.73-3.856-2.105-4.222-2.471-.149-.149-.186-1.271-.153-2.247 1.946.816 3.794 1.747 3.924 2.32.327 1.177.434 1.64.45 2.395v.003ZM1.792 13.18c1.064-.236 2.176-1.012 2.216-1.877V4.232H2.056c-.123 2.462-.188 5.875-.23 7.724.064.187.098.34.092.448 0 .26-.053.528-.126.775ZM49.32 20.842c-.2.713-.581 1.351-1.09 1.86h-.002a4.242 4.242 0 0 1-3.007 1.247 4.237 4.237 0 0 1-3.008-1.248 4.228 4.228 0 0 1-1.09-1.86h-.927V19.54c0-1.382.565-2.64 1.475-3.55a5.016 5.016 0 0 1 3.55-1.475c1.379 0 2.636.565 3.547 1.475l.001.001.002.002a5.014 5.014 0 0 1 1.475 3.547v1.303h-.927Zm-4.1-3.748a2.6 2.6 0 1 0 .002 5.199 2.6 2.6 0 0 0-.001-5.199ZM11.186 14.514c1.38 0 2.636.565 3.547 1.475l.002.001.001.002a5.014 5.014 0 0 1 1.475 3.547v1.303h-.926c-.2.713-.58 1.351-1.09 1.86h-.002a4.242 4.242 0 0 1-3.007 1.247A4.237 4.237 0 0 1 8.178 22.7a4.228 4.228 0 0 1-1.09-1.86h-.927V19.54c0-1.382.564-2.64 1.475-3.55a5.014 5.014 0 0 1 3.55-1.475Zm0 2.58a2.6 2.6 0 1 0 0 5.2 2.6 2.6 0 0 0 0-5.2Z" clip-rule="evenodd"/><path fill="currentColor" d="M45.22 18.615a1.079 1.079 0 1 0 .003 2.158 1.079 1.079 0 0 0-.002-2.158ZM11.186 18.615a1.078 1.078 0 1 0 0 2.156 1.078 1.078 0 0 0 0-2.156Z" clip-rule="evenodd"/></g></svg>