<svg xmlns="http://www.w3.org/2000/svg" width="64" height="25" fill="none" class="svg-icon" style="color:#0454f2"><g fill-rule="evenodd"><ellipse cx="32.5" cy="23.5" fill="#E5E5E5" rx="28.5" ry="1.5"/><path fill="#EBEBEB" stroke="currentColor" d="M28.227 3.664c4.321-.05 7.275 1.368 10.5 3.229-.311.414-.52.883-.616 1.394l-21.299-.79c-.004-.002-.009-.002-.014-.003a2.26 2.26 0 0 1-1.33-.856c.305-.128.595-.25.872-.368 2.157-.912 3.573-1.51 5.044-1.906 1.748-.471 3.585-.658 6.843-.7Z"/><path fill="currentColor" d="M2.93 9.559a69.546 69.546 0 0 0-.055 2.004h.95c1.231 0 2.86-.934 2.91-2.004v-.986H2.895v.986h.034ZM2.471 18.048v2.138h5.545v-.166c-2.311-.216-4.619-1.433-5.545-1.972ZM39.968 7.354l-.012.012a2.153 2.153 0 0 0-.667 1.502.72.72 0 0 0 .206.54c.144.15.324.228.532.228h1.67c.275 0 .51-.14.643-.38a.725.725 0 0 0-.013-.749c-.306-.503-.803-1.044-1.6-1.323a.722.722 0 0 0-.759.17Z" clip-rule="evenodd"/><path fill="currentColor" d="M41.337 10.396a.499.499 0 0 1-.407-.207l-.935-1.287a.505.505 0 1 1 .814-.597l.935 1.288a.509.509 0 0 1-.11.707.512.512 0 0 1-.297.096Z" clip-rule="evenodd"/><path fill="currentColor" d="M8.19 20.536c-3.367 0-6.9-2.288-7.05-2.386l-.345-.225V13.18l.227-.223c.33-.325 1.008-1.186 1.008-1.77l.201-4.816 5.053-.492C15.954 1.759 19.276.964 28.02.884c5.903.003 9.492 2.071 13.684 4.53.967.568 1.977 1.16 3.061 1.752 1.117.036 6.845.268 11.326 1.416 4.196 1.077 6.877 2.513 7.176 3.845l.453 7.486-.633.146c-1.228.286-2.233.473-4.914.473h-.466v-1.518h.466c2.055 0 3.026-.109 3.94-.294l-.03-.411-.31-5.673c-.119-.191-1.548-1.425-6.055-2.582-4.716-1.21-11.11-1.374-11.171-1.374l-.344-.09c-1.16-.633-2.232-1.261-3.262-1.865-4.163-2.443-7.404-4.352-12.906-4.321-8.505.076-11.72.855-20.224 4.905l-.253.07-3.874.376-.144 3.465c.002 1.064-.816 2.114-1.233 2.582v3.284c.94.552 3.665 1.973 6.062 1.928h1.266v1.518H8.39a7.347 7.347 0 0 1-.2.004Zm10.308-.004h28.79v-1.518h-28.79v1.518Z" clip-rule="evenodd"/><path fill="currentColor" d="M52.498 11.382c1.767 0 3.374.727 4.54 1.898h.002l.002.002a6.456 6.456 0 0 1 1.89 4.56v2.69h-2.4a4.685 4.685 0 0 0 .63-2.357c0-2.588-2.086-4.686-4.664-4.686-2.576 0-4.665 2.098-4.665 4.686 0 .859.23 1.664.633 2.357h-2.4v-2.69c0-1.772.723-3.388 1.888-4.56l.002-.002h.001a6.398 6.398 0 0 1 4.54-1.898Z" clip-rule="evenodd"/><path fill="currentColor" d="M48.647 14.307a5.42 5.42 0 0 1 3.85-1.602c1.503 0 2.865.613 3.85 1.602l.003.002a5.468 5.468 0 0 1 1.595 3.866c0 1.51-.61 2.879-1.595 3.868h-.003a5.418 5.418 0 0 1-3.85 1.603 5.415 5.415 0 0 1-3.85-1.603 5.466 5.466 0 0 1-1.595-3.868c0-1.509.61-2.875 1.595-3.866v-.002Zm3.85.043c-2.1 0-3.805 1.713-3.805 3.825 0 2.113 1.704 3.825 3.806 3.825a3.817 3.817 0 0 0 3.808-3.825 3.817 3.817 0 0 0-3.808-3.825Z" clip-rule="evenodd"/><path fill="currentColor" d="M52.5 19.563a1.387 1.387 0 0 0 0-2.774c-.761 0-1.38.623-1.38 1.386 0 .764.619 1.387 1.38 1.387ZM22.78 16.018v1.296h21.39l-21.39-1.296ZM57.45 11.38l1.444 2.602c.473-.271 1.17-.448 1.707-.448h.035c.752.01 1.503 0 2.253 0l-.029-.122c-.06-.251-.776-1.483-1.516-2.032h-3.893ZM61.182 17.137h1.703v-1.012h-1.703v1.012Z" clip-rule="evenodd"/><path fill="currentColor" d="M60.914 15.796h-.747a.54.54 0 0 0-.539.541v.588c0 .296.242.54.54.54h.746a.54.54 0 0 0 .538-.54v-.588a.54.54 0 0 0-.538-.54ZM23.787 10.816h3.486V9.804h-3.486v1.012ZM14.068 11.382c1.767 0 3.374.727 4.54 1.898h.002l.002.002a6.462 6.462 0 0 1 1.888 4.56v2.69h-2.4a4.668 4.668 0 0 0 .632-2.357c0-2.588-2.088-4.686-4.664-4.686-2.576 0-4.667 2.098-4.667 4.686 0 .859.231 1.664.633 2.357H7.636v-2.69c0-1.772.723-3.388 1.888-4.56l.001-.002h.002a6.398 6.398 0 0 1 4.54-1.898Z" clip-rule="evenodd"/><path fill="currentColor" d="M10.217 14.307a5.418 5.418 0 0 1 3.85-1.602c1.503 0 2.865.613 3.85 1.602l.003.002a5.468 5.468 0 0 1 1.595 3.866c0 1.51-.61 2.879-1.595 3.868h-.004a5.418 5.418 0 0 1-3.848 1.603 5.412 5.412 0 0 1-3.851-1.603 5.466 5.466 0 0 1-1.595-3.868c0-1.509.61-2.875 1.595-3.866v-.002Zm3.85.043a3.816 3.816 0 0 0-3.807 3.825A3.816 3.816 0 0 0 14.068 22a3.817 3.817 0 0 0 3.808-3.825 3.817 3.817 0 0 0-3.808-3.825Z" clip-rule="evenodd"/><path fill="currentColor" d="M14.068 19.563c.76 0 1.38-.624 1.38-1.388 0-.762-.62-1.386-1.38-1.386a1.386 1.386 0 0 0 0 2.773Z" clip-rule="evenodd"/></g></svg>