<svg xmlns="http://www.w3.org/2000/svg" width="63" height="25" fill="none" class="svg-icon" style="color:#0454f2"><g fill-rule="evenodd"><ellipse cx="31.5" cy="23.5" fill="#E5E5E5" rx="28.5" ry="1.5"/><path fill="currentColor" d="M24.737 3.514c-.639.038-.904.623-1.093 1.238l-.407 1.32c-.594 1.932 2.925 1.956 2.831.31l-.102-1.765a1.169 1.169 0 0 0-1.23-1.103Z" clip-rule="evenodd"/><path fill="currentColor" d="M8.588 20.357c-3.224 0-6.61-2.196-6.754-2.29l-.33-.216v-4.937l.105-.175c.165-.278.596-1.149.596-1.843l.19-4.653 8.925-.457c3.853-.182 6.301.21 8.896.622 1.465.235 2.98.477 4.83.626l14.48-.002c.843 0 1.686-.115 2.578-.237.9-.123 1.83-.25 2.77-.25.137.01 5.914.657 10.56 1.852 4.981 1.28 6.672 3.291 6.87 4.176l.434 7.186-.606.14c-1.175.275-2.139.455-4.705.455h-2.699v-1.457h2.7c1.967 0 2.895-.105 3.772-.283l-.029-.395-.296-5.446c-.094-.216-1.485-1.855-5.8-2.964C50.532 8.64 44.852 8.004 44.796 8c-.763.005-1.606.118-2.498.24-.9.123-1.83.25-2.77.25H24.989c-1.965-.156-3.508-.403-5-.64-2.52-.402-4.896-.784-8.598-.606l-7.602.389-.137 3.291c.002.974-.476 1.974-.7 2.385v3.737c.901.53 3.496 1.891 5.808 1.852h2.192v1.457H8.779c-.063.001-.126.003-.19.003Zm9.96-.002h28.585v-1.458H18.548v1.458Z" clip-rule="evenodd"/><path fill="currentColor" d="M2.982 10.2c-.026.715-.05 1.473-.053 1.923h.912c1.177 0 2.738-.896 2.786-1.923v-.946H2.949v.946h.033ZM56.785 11.935l1.383 2.498c.453-.261 1.12-.43 1.634-.43h.035c.72.008 1.438 0 2.157 0l-.027-.117c-.058-.242-.745-1.425-1.455-1.951h-3.727ZM19.459 20.354a5.26 5.26 0 0 1-1.02 1.452h-.004a5.188 5.188 0 0 1-7.374 0 5.297 5.297 0 0 1-1.02-1.452H8.589v-2.582a6.2 6.2 0 0 1 1.81-4.38 6.116 6.116 0 0 1 4.35-1.822h.002c1.69 0 3.23.697 4.348 1.822v.002h.002a6.208 6.208 0 0 1 1.81 4.378v2.582h-1.452Zm31.47-5.935c-2.014 0-3.645 1.644-3.645 3.672 0 2.028 1.631 3.672 3.646 3.672 2.014 0 3.647-1.644 3.647-3.672 0-2.028-1.633-3.672-3.647-3.672Zm-36.178 0c-2.015 0-3.648 1.644-3.648 3.672 0 2.028 1.633 3.672 3.648 3.672 2.012 0 3.645-1.644 3.645-3.672 0-2.028-1.633-3.672-3.645-3.672Zm36.179-2.85c1.692 0 3.231.698 4.348 1.823l.002.002h.002a6.215 6.215 0 0 1 1.81 4.378v2.582h-1.453a5.333 5.333 0 0 1-1.02 1.452 5.19 5.19 0 0 1-7.374 0h-.003a5.261 5.261 0 0 1-1.02-1.452h-1.453v-2.582c0-1.702.693-3.252 1.809-4.378h.001l.002-.002a6.121 6.121 0 0 1 4.349-1.822Z" clip-rule="evenodd"/><path fill="currentColor" d="M50.93 16.76c-.73 0-1.322.597-1.322 1.333 0 .733.593 1.328 1.322 1.328.73 0 1.32-.595 1.32-1.328 0-.736-.59-1.332-1.32-1.332ZM24.054 10.879h3.34v-.972h-3.34v.972ZM14.75 16.76c-.73 0-1.32.597-1.32 1.333 0 .733.59 1.328 1.32 1.328.73 0 1.322-.595 1.322-1.328 0-.736-.593-1.332-1.321-1.332ZM22.927 15.962v1.244H43.21l-20.283-1.244ZM60.36 17.462h1.63v-.972h-1.63v.972Z" clip-rule="evenodd"/><path fill="currentColor" d="M60.102 16.174h-.715a.518.518 0 0 0-.516.52v.564c0 .284.232.517.516.517h.715a.518.518 0 0 0 .516-.517v-.564a.518.518 0 0 0-.516-.52ZM2.636 17.703v2.052h5.31v-.16c-2.213-.206-4.423-1.374-5.31-1.892ZM15.197 3.166c-.639.038-.906.623-1.095 1.238l-.405 1.32a1.546 1.546 0 0 0-.063.315c.99.052 1.946.134 2.88.232.014-.074.018-.154.014-.237l-.102-1.765a1.17 1.17 0 0 0-1.23-1.103ZM45.24 6.651c-.018-.012-7.074-4.349-10.026-5.264a16.46 16.46 0 0 0-1.065-.292v.002c-.376-.089-.762-.171-1.152-.242l-.256 1.43c3.675.945 5.125 3.256 8.327 5.194.505.307 2.942.126 3.437.419l.736-1.247ZM38.292 6.962l-.013.013c-.404.396-.619.88-.639 1.44-.007.201.06.376.198.52.14.144.31.218.509.218h1.6a.69.69 0 0 0 .617-.366.701.701 0 0 0-.014-.718 2.895 2.895 0 0 0-1.532-1.27.69.69 0 0 0-.726.163Z" clip-rule="evenodd"/><path fill="currentColor" d="M39.602 9.885a.484.484 0 0 1-.39-.201l-.896-1.236a.49.49 0 0 1 .106-.679.482.482 0 0 1 .674.106l.895 1.236a.486.486 0 0 1-.39.774Z" clip-rule="evenodd"/></g></svg>