<svg xmlns="http://www.w3.org/2000/svg" width="64" height="29" fill="none" class="svg-icon" style="color:#0454f2"><g fill-rule="evenodd"><ellipse cx="31.5" cy="27.5" fill="#E5E5E5" rx="28.5" ry="1.5"/><path fill="#EBEBEB" stroke="currentColor" d="m10.375 5.908-.013-.035-.018-.032c-.146-.26-.126-.415-.068-.528.076-.147.28-.346.739-.54.912-.388 2.533-.635 4.894-.635h.002c6.08 0 12.161 0 18.243-.002 2.15.216 3.939 1.262 5.681 2.587l-.031.03-.038.038-.007.01c-.342.368-.544.946-.67 1.45-.088.36-.15.732-.185 1.062l-26.702.063c-.331.001-.57-.159-.652-.375l-1.175-3.093ZM6.188 9.378h-2.47c.247-1.15.594-2.578 1.114-3.63h.478l.878 3.63Z"/><path fill="currentColor" d="M7.973 23.292c-2.997 0-7.419-2.75-7.61-2.87l-.32-.2V15.93l.2-.203c.29-.293.886-1.068.886-1.597L1.185 13c.04-.78.087-1.679.112-2.483.016-.48.625-1.295 1.332-1.71.307-1.328.836-3.146 1.272-4.162l.165-.376c.049-.107.085-.174.1-.233a2.724 2.724 0 0 1-.042-.216l-.181-1.19.61-.133c2.604-.572 7.82-.915 11.356-.915h18.33c3.797.342 6.09 2.257 8.518 4.286 1.119.934 2.276 1.9 3.64 2.774.6.058 1.467.092 2.48.132 6.076.239 11.578.683 12.187 3.467l.566 3.166c.363.253.893.757.893 1.532v3.978c0 .593-.07 1.187-.571 1.527-.962.626-2.087.846-4.311.846h-1.118v-1.37h1.118c1.906 0 2.845-.159 3.552-.602-.018-.014.002-.138.002-.4v-3.979c0-.187-.315-.42-.442-.48l-.31-.148-.68-3.794c-.429-1.961-7.525-2.24-10.936-2.375-1.138-.044-2.1-.082-2.72-.153l-.274-.097c-1.497-.942-2.724-1.967-3.911-2.961-2.365-1.974-4.405-3.678-7.741-3.981l-18.272.003c-3.203 0-7.789.282-10.457.76.075.48.043.639-.182 1.135l-.155.353c-.434 1.011-.994 2.983-1.264 4.232l-.08.369-.345.126c-.384.141-.768.64-.83.787.003.66-.045 1.571-.086 2.36l-.055 1.087c.002.957-.716 1.904-1.083 2.326v2.955c1.058.623 4.46 2.497 6.717 2.478l1.619-.002v1.371h-1.6l-.135.002Zm11.28-.002h27.724v-1.37H19.253v1.37Z" clip-rule="evenodd"/><path fill="currentColor" d="m56.195 12.568 1.848 3.42c.606-.357 1.497-.587 2.186-.587h.045l.682.004-.442-2.463-4.319-.374ZM30.757 11.964h3.063v-.913h-3.063v.913ZM18.733 11.507h3.063v-.914h-3.063v.914ZM1.795 14.073h.585c1.35 0 3.138-1.054 3.193-2.26v-1.11H1.956c-.04 1.168-.122 2.498-.16 3.37ZM40.624 7.593l-.01.013c-.372.369-.569 1.742-.586 2.267a.659.659 0 0 0 .181.488.618.618 0 0 0 .467.205h1.467c1.569 0-.267-2.915-.852-3.126a.628.628 0 0 0-.667.153ZM22.928 18.852v1.17h20.81l-20.81-1.17ZM10.85 26.197a5.82 5.82 0 0 1-1.785-2.907h-.996v-2.694c0-1.819.72-3.475 1.882-4.673 1.162-1.2 2.766-1.943 4.53-1.943 1.76 0 3.366.744 4.527 1.944l.002-.001a6.705 6.705 0 0 1 1.882 4.673v2.694h-.996a5.83 5.83 0 0 1-1.784 2.907 5.49 5.49 0 0 1-3.63 1.38 5.49 5.49 0 0 1-3.632-1.38Zm40.9-8.272c-2.067 0-3.742 1.729-3.742 3.862 0 2.135 1.675 3.864 3.741 3.864 2.067 0 3.742-1.73 3.742-3.864 0-2.133-1.675-3.862-3.742-3.862Zm-37.269 0c-2.067 0-3.743 1.729-3.743 3.862 0 2.135 1.676 3.864 3.743 3.864s3.742-1.73 3.742-3.864c0-2.133-1.675-3.862-3.742-3.862ZM51.75 13.98c1.763 0 3.366.744 4.529 1.944l.001-.001a6.705 6.705 0 0 1 1.883 4.673v2.694h-.998a5.818 5.818 0 0 1-1.784 2.907 5.49 5.49 0 0 1-3.63 1.38 5.484 5.484 0 0 1-3.63-1.379l-.001.002a5.834 5.834 0 0 1-1.786-2.91h-.996v-2.694c0-1.82.721-3.475 1.882-4.673 1.162-1.2 2.767-1.943 4.53-1.943Z" clip-rule="evenodd"/><path fill="currentColor" d="M51.75 20.285c-.804 0-1.455.674-1.455 1.504s.65 1.501 1.454 1.501c.804 0 1.455-.672 1.455-1.501 0-.83-.65-1.504-1.455-1.504ZM14.481 20.285c-.804 0-1.455.674-1.455 1.504s.651 1.501 1.455 1.501 1.455-.672 1.455-1.501c0-.83-.65-1.504-1.455-1.504Z" clip-rule="evenodd"/></g></svg>