<svg xmlns="http://www.w3.org/2000/svg" width="66" height="25" fill="none" class="svg-icon" style="color:#0454f2"><g fill-rule="evenodd"><path fill="#EBEBEB" stroke="currentColor" d="M31.808 3.675c3.137.287 5.538 1.298 7.959 2.668a3.335 3.335 0 0 0-.636 1.865v.004c-.002.074 0 .147.006.22l-1.388.009c-3.39.022-8.073.052-12.586-.025-2.757-.047-5.445-.134-7.733-.287-1.814-.121-3.352-.283-4.47-.492 2.079-2.332 3.896-3.96 6.46-3.96 3.388 0 8.99 0 12.388-.002Z"/><path fill="currentColor" d="M6.13 21.273c-2.917 0-4.14-1.86-4.376-2.865l-.023-3.91.256-.244c.42-.4 1.015-1.189 1.015-1.689l.123-2.363c.038-.75.394-1.41 1.002-1.854l6.561-4.788-.851-1.331 1.007-.325c2.473-.802 4.08-1.179 8.1-1.179l12.96-.002c1.975.171 3.644.473 5.034.902 2.837.871 9.214 4.7 10.27 5.34.838.133 4.76.777 9.032 1.87 5.193 1.326 6.958 3.423 7.166 4.348l.456 7.461-.685.158c-1.221.283-2.221.47-4.889.47h-3.346v-1.637h3.346c1.989 0 2.95-.102 3.837-.277l-.025-.345-.308-5.607c-.107-.221-1.511-1.852-5.956-2.985-4.72-1.208-8.994-1.858-9.036-1.865l-.304-.11c-.071-.044-7.202-4.386-10.038-5.26-1.281-.394-2.839-.673-4.627-.832l-12.887.006c-3.232 0-4.752.242-6.582.782l.532.831L5.092 9.67a.771.771 0 0 0-.334.617l-.121 2.322c0 1.056-.827 2.094-1.27 2.575V18.1c.123.358.721 1.561 2.931 1.535h2.164v1.636h-2.14c-.066.002-.128.002-.191.002Zm10.103-.002h30.936v-1.636H16.233v1.636Z" clip-rule="evenodd"/><path fill="currentColor" d="m3.952 10.125-.012.12-.103 1.994H6.09s1.473-1.624 1.414-2.616c0 0-1.606-.021-3.552.502ZM12.348 12.3a6.28 6.28 0 0 1 4.448 1.85l-.002.002a6.278 6.278 0 0 1 1.85 4.446v2.673h-2.517a4.45 4.45 0 0 0-3.78-6.804 4.452 4.452 0 0 0-3.782 6.804H6.05v-2.673c0-1.733.708-3.308 1.848-4.448a6.281 6.281 0 0 1 4.45-1.85Zm38.71 0a6.28 6.28 0 0 1 4.448 1.85l-.002.002a6.278 6.278 0 0 1 1.85 4.446v2.673h-2.515a4.452 4.452 0 1 0-7.562 0H44.76v-2.673c0-1.733.707-3.308 1.848-4.448a6.281 6.281 0 0 1 4.45-1.85ZM24.467 11.88h2.372v-1.09h-2.372v1.09ZM40.911 6.615l-.015.016a2.296 2.296 0 0 0-.72 1.615.766.766 0 0 0 .224.583c.156.161.35.244.575.244h1.806a.78.78 0 0 0 .696-.408.781.781 0 0 0-.013-.807c-.331-.54-.872-1.125-1.733-1.425a.783.783 0 0 0-.82.182Z" clip-rule="evenodd"/><path fill="currentColor" d="M42.39 9.894a.536.536 0 0 1-.438-.225l-1.014-1.386a.546.546 0 0 1 .881-.643l1.014 1.387a.545.545 0 0 1-.443.867ZM12.34 3.113 6.275 7.798h3.67l3.072-3.929-.677-.756ZM57.583 12.037l1.56 2.801c.513-.292 1.267-.48 1.847-.48h.039c.515.005 1.03.003 1.544.002l-.084-.983a5.504 5.504 0 0 0-1.181-1.34h-3.725ZM61.075 18.236h1.842v-1.09h-1.842v1.09Z" clip-rule="evenodd"/><path fill="currentColor" d="M60.783 16.792h-.808a.583.583 0 0 0-.583.583v.633c0 .32.262.58.583.58h.808c.32 0 .582-.26.582-.58v-.633a.584.584 0 0 0-.582-.583ZM51.058 15.208a3.694 3.694 0 0 0-2.623 1.086 3.7 3.7 0 0 0-1.089 2.623 3.7 3.7 0 0 0 1.089 2.623 3.694 3.694 0 0 0 2.623 1.087 3.7 3.7 0 0 0 2.623-1.087 3.698 3.698 0 0 0 1.086-2.623 3.698 3.698 0 0 0-1.086-2.623 3.7 3.7 0 0 0-2.623-1.086Zm-3.781-.072a5.33 5.33 0 0 1 3.78-1.565c1.476 0 2.812.598 3.78 1.566a5.33 5.33 0 0 1 1.565 3.78 5.33 5.33 0 0 1-1.566 3.781 5.336 5.336 0 0 1-3.778 1.566c-1.477 0-2.814-.6-3.781-1.566a5.33 5.33 0 0 1-1.566-3.78 5.33 5.33 0 0 1 1.566-3.781Zm-34.929.072a3.705 3.705 0 0 0-2.625 6.333 3.702 3.702 0 0 0 2.625 1.086 3.706 3.706 0 0 0 2.623-6.333 3.7 3.7 0 0 0-2.623-1.086Zm-3.78-.072a5.33 5.33 0 0 1 3.78-1.565c1.475 0 2.812.598 3.779 1.566a5.33 5.33 0 0 1 1.565 3.78 5.33 5.33 0 0 1-1.565 3.781 5.336 5.336 0 0 1-3.779 1.566c-1.477 0-2.813-.6-3.78-1.566a5.33 5.33 0 0 1-1.566-3.78 5.33 5.33 0 0 1 1.565-3.781Z" clip-rule="evenodd"/><path fill="currentColor" d="M12.348 17.587a1.332 1.332 0 1 0-.002 2.663 1.332 1.332 0 0 0 .002-2.663ZM20.771 16.677v1.396h18.033L20.77 16.677ZM51.058 17.587a1.332 1.332 0 1 0-.002 2.663 1.332 1.332 0 0 0 .002-2.663Z" clip-rule="evenodd"/></g></svg>