<svg xmlns="http://www.w3.org/2000/svg" width="60" height="25" fill="none" class="icon" style="color:#0454f2"><g fill-rule="evenodd"><path fill="#EBEBEB" stroke="currentColor" d="M6.314 4.465 7.38 8.639l32.365 1.909v-.033l.001-.002c.028-.748.306-1.42.817-1.96-3.244-2.375-6.507-4.605-10.192-4.795-3.254-.17-6.648-.137-9.986-.105-.894.009-1.784.017-2.666.022m-11.406.79 11.405-.79m-11.405.79c3.753-.709 7.543-.763 11.406-.79m-11.406.79 11.406-.79"/><path fill="currentColor" d="M58.557 15.888c-1.619-.873-4.627-2.525-5.065-2.965-.289-.286-.409-1.016-.212-1.761 2.355.473 4.385 1.191 4.693 2.563l.587 2.108-.003.055ZM20.347 18.81h21.095v-1.418H20.347v1.418ZM30.802 13.933h.945v-2.055h-.945v2.055ZM27.697 13.933h.945v-2.055h-.945v2.055ZM8.95 11.608h8.75v-.945H8.95v.945ZM2.112 13.815c1.276-.282 2.61-1.213 2.66-2.252V6.04h-1.92c-.405 2.6-.525 5.613-.59 6.845 0 .312-.062.633-.15.93ZM41.357 9.137l-.014.011a1.998 1.998 0 0 0-.625 1.4.67.67 0 0 0 .194.505c.136.14.303.212.5.212h1.565a.674.674 0 0 0 .603-.353.674.674 0 0 0-.013-.699 2.838 2.838 0 0 0-1.5-1.236.676.676 0 0 0-.71.16Z" clip-rule="evenodd"/><path fill="currentColor" d="M42.638 11.977a.47.47 0 0 1-.381-.195l-.877-1.2a.473.473 0 0 1 .763-.557l.877 1.2a.472.472 0 0 1-.382.752ZM56.712 17.66h-.229a.507.507 0 0 0-.505.505v.548c0 .277.229.504.505.504h.229a.506.506 0 0 0 .465-.305h1.383v-.945h-1.383a.506.506 0 0 0-.465-.307Z" clip-rule="evenodd"/><path fill="currentColor" d="M4.543 22.082c-1.458 0-2.976-1.055-3.616-2.539l-.06-.28v-4.416l.103-.17c.01-.017.152-.259.297-.602.188-.452.286-.863.286-1.19l.022-.45c.068-1.355.193-3.88.527-6.177C2.642 2.552 3.497.9 4.873.9l25.61-.002c3.659.189 6.58 1.824 8.72 3.229 1.09.716 2.157 1.5 3.232 2.288 1.363.998 2.772 2.032 4.232 2.922.818.215 2.013.386 3.276.565 1.07.153 2.209.316 3.289.526 2.3.45 4.998 1.212 5.433 3.14.59 2.117.602 2.4.53 4.799l-.092 3.15-.873.203c-.39.093-.727.173-1.175.235-.638.087-1.447.127-2.618.127H53.31v-1.419h1.127c1.105 0 1.853-.035 2.426-.113.325-.043.584-.1.855-.165l.06-2.013c.067-2.317.072-2.452-.486-4.457-.2-.88-1.655-1.573-4.334-2.095-1.055-.205-2.168-.365-3.215-.515-1.358-.193-2.64-.377-3.548-.628l-.177-.077c-1.543-.933-3.006-2.005-4.42-3.043-1.056-.774-2.103-1.544-3.173-2.245-2.997-1.967-5.382-2.864-7.978-2.997l-25.57.002c-.01 0-.795.178-1.372 4.145-.325 2.231-.447 4.711-.515 6.043l-.02.417c.002.481-.132 1.066-.397 1.7a6.64 6.64 0 0 1-.288.606v3.879c.455.92 1.435 1.528 2.322 1.556h1.14v1.419H4.543Zm10.027 0h31.307v-1.419H14.57v1.419Z" clip-rule="evenodd"/><path fill="currentColor" d="M46.663 24.06a5.124 5.124 0 0 1-1.675-1.98h-1.425v-2.51a6.02 6.02 0 0 1 1.77-4.257h.002l.002-.001a6.011 6.011 0 0 1 4.256-1.772c1.657 0 3.164.678 4.257 1.772l.002.001h.001a6.022 6.022 0 0 1 1.772 4.257v2.51H54.2a5.124 5.124 0 0 1-1.675 1.98 5.087 5.087 0 0 1-2.932.927c-1.088 0-2.1-.344-2.93-.927Zm2.93-7.748a3.569 3.569 0 1 0 0 7.14 3.569 3.569 0 0 0 0-7.14Zm-39.435 0a3.57 3.57 0 1 0 0 7.139 3.57 3.57 0 0 0 0-7.14Zm0-2.772c1.657 0 3.164.678 4.257 1.772l.002.001h.001a6.02 6.02 0 0 1 1.77 4.257v2.51h-1.423a5.124 5.124 0 0 1-1.675 1.98 5.091 5.091 0 0 1-2.932.927 5.105 5.105 0 0 1-4.605-2.907H4.128v-2.51a6.02 6.02 0 0 1 1.77-4.257H5.9l.002-.001a6.009 6.009 0 0 1 4.256-1.772Z" clip-rule="evenodd"/><path fill="currentColor" d="M49.593 18.588a1.293 1.293 0 1 0 .003 2.587 1.293 1.293 0 0 0-.003-2.587ZM10.158 18.588a1.292 1.292 0 1 0-.001 2.585 1.292 1.292 0 0 0 .001-2.585Z" clip-rule="evenodd"/></g></svg>