<svg xmlns="http://www.w3.org/2000/svg" width="67" height="25" fill="none" class="icon" style="color:#0454f2"><g fill-rule="evenodd"><path fill="#EBEBEB" stroke="currentColor" d="M37.68 4.875c1.071.33 2.504 1.011 3.992 1.807a3.141 3.141 0 0 0-.631 1.586h-26.2c-1.895 0-3.062-.057-4.073-.295l.298-.218c1.051-.771 1.874-1.374 2.591-1.853.944-.63 1.676-1.021 2.46-1.275 1.51-.488 3.264-.487 7.156-.486h4.836l4.611-.001c1.676 0 3.36.242 4.96.735Z"/><path fill="currentColor" d="M8.067 20.832c-3.159 0-6.472-2.134-6.615-2.227l-.322-.21v-4.8l.102-.17c.161-.27.583-1.117.583-1.792l.172-3.313 6.276-4.305-.206-1.393.65-.139c2.613-.558 7.211-.946 11.18-.946l13.818-.002c1.855.162 3.43.447 4.74.85 2.672.822 8.687 4.432 9.692 5.04.948.11 5.98.725 10.1 1.777 4.878 1.245 6.533 3.2 6.728 4.06l.425 6.988-.593.137c-1.154.268-2.097.443-4.607.443h-2.488v-1.418h2.488c1.927 0 2.835-.102 3.695-.275l-.028-.384-.29-5.296c-.092-.209-1.454-1.802-5.68-2.882C53.44 9.44 47.88 8.822 47.823 8.817l-.291-.1c-.067-.042-6.815-4.15-9.504-4.977-1.215-.375-2.69-.64-4.385-.79l-13.756.005c-3.565 0-7.634.317-10.232.787l.14.94-6.428 4.411-.135 2.577c.001.938-.467 1.907-.685 2.308v3.634c.881.515 3.405 1.828 5.686 1.801l4.319-.001v1.418h-4.3c-.062.002-.124.002-.185.002Zm12.228-.002h29.663v-1.418H20.295v1.418Z" clip-rule="evenodd"/><path fill="currentColor" d="M2.058 12.827h.894c1.153 0 2.68-.874 2.726-1.87v-.92h-3.6c0 .943-.013 1.828-.02 2.79ZM59.562 12.643l1.353 2.429a3.552 3.552 0 0 1 1.602-.419h.033c.705.009 1.407 0 2.112 0l-.027-.113c-.057-.237-.73-1.385-1.423-1.897h-3.65ZM32.518 11.617h3.27v-.945h-3.27v.945ZM18.92 11.617h3.27v-.945h-3.27v.945ZM24.052 16.558v1.21h22.22l-22.22-1.21ZM63.062 18.017h1.595v-.945h-1.595v.945Z" clip-rule="evenodd"/><path fill="currentColor" d="M62.81 16.765h-.702a.506.506 0 0 0-.505.505v.548c0 .279.227.504.505.504h.702a.504.504 0 0 0 .505-.504v-.548a.506.506 0 0 0-.505-.505ZM42.852 7.143l-.014.014a1.999 1.999 0 0 0-.625 1.4.666.666 0 0 0 .195.505c.135.14.302.211.499.211h1.566a.671.671 0 0 0 .602-.353.674.674 0 0 0-.012-.698 2.843 2.843 0 0 0-1.5-1.237.681.681 0 0 0-.711.158Z" clip-rule="evenodd"/><path fill="currentColor" d="M44.133 9.985a.473.473 0 0 1-.381-.193l-.877-1.204a.473.473 0 0 1 .763-.557l.877 1.204a.474.474 0 0 1-.382.75ZM2.237 18.252v1.996h5.2v-.156c-2.169-.202-4.33-1.337-5.2-1.84ZM16.423 12.29c1.657 0 3.164.678 4.257 1.772h.002l.001.001a6.017 6.017 0 0 1 1.77 4.257v2.51h-2.25a4.374 4.374 0 1 0-7.562 0h-2.248v-2.51c0-1.655.679-3.163 1.77-4.257l.002-.001h.002a6.011 6.011 0 0 1 4.256-1.772Z" clip-rule="evenodd"/><path fill="currentColor" d="M12.813 15.02a5.09 5.09 0 0 1 3.61-1.495 5.09 5.09 0 0 1 3.609 1.495l.003.002a5.092 5.092 0 0 1 1.495 3.608 5.09 5.09 0 0 1-1.495 3.61h-.003a5.09 5.09 0 0 1-3.609 1.497 5.085 5.085 0 0 1-3.61-1.497 5.09 5.09 0 0 1-1.495-3.61c0-1.408.572-2.683 1.495-3.608v-.002Zm3.61.04a3.57 3.57 0 1 0 0 7.14 3.57 3.57 0 0 0 0-7.14Z" clip-rule="evenodd"/><path fill="currentColor" d="M16.425 19.925c.712 0 1.293-.582 1.293-1.295 0-.712-.581-1.293-1.293-1.293-.713 0-1.295.581-1.295 1.293 0 .713.582 1.295 1.295 1.295ZM53.83 12.29c1.657 0 3.163.678 4.257 1.772h.001l.002.001a6.017 6.017 0 0 1 1.77 4.257v2.51h-2.25a4.374 4.374 0 1 0-7.562 0H47.8v-2.51c0-1.655.678-3.163 1.77-4.257l.002-.001h.001a6.012 6.012 0 0 1 4.257-1.772Z" clip-rule="evenodd"/><path fill="currentColor" d="M50.22 15.02a5.09 5.09 0 0 1 3.61-1.495 5.09 5.09 0 0 1 3.608 1.495l.004.002a5.1 5.1 0 0 1 1.495 3.608 5.09 5.09 0 0 1-1.495 3.61h-.004a5.09 5.09 0 0 1-3.608 1.497 5.084 5.084 0 0 1-3.61-1.497 5.09 5.09 0 0 1-1.495-3.61c0-1.408.572-2.683 1.495-3.608v-.002Zm3.61.04a3.57 3.57 0 1 0 0 7.14 3.57 3.57 0 0 0 0-7.14Z" clip-rule="evenodd"/><path fill="currentColor" d="M53.83 19.925c.713 0 1.295-.582 1.295-1.295 0-.712-.582-1.293-1.295-1.293-.712 0-1.293.581-1.293 1.293 0 .713.581 1.295 1.293 1.295Z" clip-rule="evenodd"/></g></svg>