<svg width="85" height="85" fill="none" xmlns="http://www.w3.org/2000/svg"><path d="M84.07 42.5c0 22.977-18.593 41.57-41.57 41.57S.93 65.477.93 42.5 19.523.93 42.5.93 84.07 19.523 84.07 42.5ZM42.5 3.453A38.94 38.94 0 0 0 3.453 42.5c0 21.648 17.531 39.047 39.047 39.047 21.648 0 39.047-17.531 39.047-39.047A38.94 38.94 0 0 0 42.5 3.453Z" fill="url(#a)"/><path d="M42.5 3.453A38.94 38.94 0 0 0 3.453 42.5c0 21.648 17.531 39.047 39.047 39.047 21.648 0 39.047-17.531 39.047-39.047A38.94 38.94 0 0 0 42.5 3.453Zm0 75.57c-20.188 0-36.523-16.335-36.523-36.523 0-20.188 16.335-36.523 36.523-36.523 20.188 0 36.523 16.335 36.523 36.523 0 20.188-16.335 36.523-36.523 36.523Z" fill="url(#b)"/><path opacity=".4" d="M42.5 84.07c22.977 0 41.57-18.593 41.57-41.57S65.477.93 42.5.93.93 19.523.93 42.5 19.523 84.07 42.5 84.07ZM42.5 0C65.875 0 85 19.125 85 42.5S65.875 85 42.5 85 0 65.875 0 42.5 19.125 0 42.5 0Z" fill="url(#c)"/><path d="M2.922 42.633c0-21.781 17.664-39.711 39.578-39.711s39.578 17.797 39.578 39.71c0 21.782-17.664 39.446-39.578 39.446S2.922 64.414 2.922 42.633Zm12.351-27.36c-7.039 7.04-11.421 16.735-11.421 27.36s4.382 20.32 11.289 27.226C22.18 76.766 31.875 81.15 42.5 81.15s20.32-4.25 27.227-11.29c7.039-6.906 11.289-16.601 11.289-27.226s-4.383-20.32-11.29-27.36A38.121 38.121 0 0 0 42.5 3.852a38.121 38.121 0 0 0-27.227 11.421Z" fill="#fff"/><path opacity=".4" d="M42.5 79.156c-9.828 0-18.992-3.851-25.898-10.758C9.695 61.492 5.844 52.328 5.844 42.5s3.851-18.992 10.758-25.898C23.508 9.695 32.672 5.844 42.5 5.844s18.992 3.851 25.898 10.758c6.907 6.906 10.758 16.07 10.758 25.898s-3.851 18.992-10.758 25.898c-6.906 6.907-16.07 10.758-25.898 10.758Zm0-1.062c9.43 0 18.46-3.719 25.102-10.36 6.773-6.773 10.359-15.671 10.359-25.101S74.242 24.172 67.6 17.53C60.829 10.758 51.93 7.171 42.5 7.171s-18.46 3.72-25.102 10.36C10.625 24.04 6.906 33.071 6.906 42.5c0 9.43 3.719 18.46 10.36 25.102C24.039 74.375 33.07 78.094 42.5 78.094Z" fill="url(#d)"/><path d="M74.773 59.766c-.664-.532-26.296-20.852-26.296-20.852L42.5 4.781c-.398.133-.93.532-1.195 1.063l-4.25 33.203-26.43 20.32s-.531.664-.797 1.063c-.133.265-.133.664-.133 1.062l32.672-13.414L75.04 61.492c.266-.664 0-1.328-.266-1.726Z" fill="#fff"/><path d="m42.766 43.563-.266 6.109 30.016 12.086c1.062.531 1.859.265 2.656-.266L43.164 43.43c-.133-.133-.398 0-.398.133Z" fill="#565F64"/><path d="M42.766 43.563s1.726 3.054 3.718 5.18c2.79 3.054 6.508 5.179 6.508 5.179l19.524 7.836c1.062.531 1.859.265 2.656-.266L43.164 43.43c-.133-.133-.398 0-.398.133Z" fill="url(#e)"/><path d="M75.04 60.297c0-.133-.134-.266-.267-.531L47.414 39.71l-3.719 2.39s.266.133.399 0c.398-.132 1.195-.265 1.992 0 .664.266 28.953 18.329 28.953 18.329v-.133Z" fill="#A4AAAE" fill-opacity=".6"/><path d="m74.11 59.102-25.5-20.188-1.196.797 27.36 20.187c-.133-.265-.399-.53-.665-.796Z" fill="#333E46"/><path d="m43.164 41.57-.133.133s0 .266.266.133c.133-.133 3.984-2.125 5.312-2.922L43.961 7.04c-.133-1.195-.664-1.726-1.594-2.125l.531 36.922.266-.266Z" fill="#565F64"/><path d="M40.906 7.04v1.726l-2.922 29.351c0 .399.133.797.532 1.063l1.726 1.328 1.196-32.406.132-2.524c-.398.266-.53.797-.664 1.461ZM39.313 41.04l-1.594-1.33-26.961 19.524s-.797.532-.93 1.063l.93-.531 28.289-17.797c.531-.266.664-.532.266-.93Z" fill="#A4AAAE" fill-opacity=".6"/><path d="M42.102 43.563c0-.133-.133-.266-.266-.133L9.696 61.625c.796.531 1.593.664 2.656.266l30.015-12.086-.265-6.242Z" fill="#565F64"/><path d="m43.031 41.703.133-.133-.133.133s0 .133.133.133h.133c.133-.133 3.984-2.125 5.312-2.922l-.53-3.852L43.96 7.04c0-.531-.133-.93-.398-1.195 0 0 1.992 26.828 1.992 29.75 0 3.851-2.524 6.11-2.524 6.11Z" fill="url(#f)"/><path d="M42.102 43.563c0-.133-.133-.266-.266-.133L9.696 61.625c.796.531 1.593.664 2.656.266l30.015-12.086-.265-6.242Z" fill="url(#g)" fill-opacity=".8"/><path opacity=".8" d="m12.352 61.758 30.015-12.086-.265-5.844c-.532 1.594-1.461 3.32-3.985 4.649-1.86 1.062-19.656 9.828-26.031 12.882-.399.266-.93.399-1.195.532.53.265.93.132 1.46-.133Z" fill="url(#h)"/><path d="m43.164 41.57-.133.133s0 .266.266.133c.133-.133 3.984-2.125 5.312-2.922L43.961 7.04c-.133-1.195-.664-1.726-1.594-2.125l.531 36.922.266-.266Z" fill="url(#i)"/><path d="m43.164 41.57-.133.133s0 .266.266.133c.133-.133 3.984-2.125 5.312-2.922L43.961 7.04c-.133-1.195-.664-1.726-1.594-2.125l.531 36.922.266-.266Z" fill="url(#j)"/><path d="M6.773 58.969c-.93-2.125-6.242-12.485-.398-32.407H4.117c-1.195 3.985-2.125 6.375-2.656 9.961 0 0-.266 1.329-.399 2.79C.93 40.773.93 41.57.93 42.5c0 7.969 1.992 12.617 1.992 12.617 2.125 6.64 5.844 12.617 10.89 17.133 4.383 3.852 11.157 6.773 16.735 7.836-.93-.133-16.867-6.906-23.774-21.117Z" fill="url(#k)"/><path d="M43.031 43.297h-1.195c.133 0 .266 0 .266.133l.265 6.11h.133l.266-6.11c0-.133.132-.266.265-.133Z" fill="url(#l)"/><path d="M55.781 3.055c13.946 5.312 27.094 19.922 27.094 38.383 0 22.312-17.797 40.507-40.375 40.507v2.125c22.578 0 41.57-18.593 41.57-41.57 0-18.328-11.687-33.734-28.289-39.445Z" fill="url(#m)"/><path d="M78.094 26.828C68.797 5.445 47.813 4.25 46.617 4.118h-.133c16.07 2.921 26.297 13.413 29.883 24.437v.133c1.594 4.25 2.39 8.765 2.524 13.68.132 4.648-.93 9.827-2.922 14.609-.133.664-.266 1.46-.399 1.46h2.125c6.375-11.953 3.586-24.039.399-31.609Z" fill="url(#n)"/><path d="M2.922 42.633c0-21.781 17.664-39.711 39.578-39.711s39.578 17.797 39.578 39.71c0 21.782-17.664 39.446-39.578 39.446S2.922 64.414 2.922 42.633Zm12.351-27.36c-7.039 7.04-11.421 16.735-11.421 27.36s4.382 20.32 11.289 27.226C22.18 76.766 31.875 81.15 42.5 81.15s20.32-4.25 27.227-11.29c7.039-6.906 11.289-16.601 11.289-27.226s-4.383-20.32-11.29-27.36A38.121 38.121 0 0 0 42.5 3.852a38.121 38.121 0 0 0-27.227 11.421Z" fill="#FBFBFB"/><path d="m10.492 59.5 27.094-19.523c1.46.796 3.852 1.859 4.117 1.859.266.133.266-.133.266-.133l-3.32-2.789c-.399-.266-.532-.664-.532-1.062l3.188-32.008c-.133.133-.133.398-.266.531-.133.266-.133.398-.133.664l-4.648 32.008-25.5 20.055c-.133.132-.266.265-.266.398Z" fill="#333F47"/><defs><linearGradient id="h" x1="27.625" y1="55.648" x2="26.828" y2="53.656" gradientUnits="userSpaceOnUse"><stop stop-color="#02131F"/><stop offset=".1" stop-color="#02131F"/><stop offset="1" stop-color="#02131F" stop-opacity="0"/></linearGradient><linearGradient id="a" x1="10.625" y1="15.805" x2="74.375" y2="69.195" gradientUnits="userSpaceOnUse"><stop stop-color="#fff"/><stop offset=".1" stop-color="#CDD0D0"/><stop offset=".2" stop-color="#A5ACAF"/><stop offset=".3" stop-color="#98A0A4"/><stop offset=".4" stop-color="#828A8F"/><stop offset=".5" stop-color="#667075"/><stop offset=".6" stop-color="#535C63"/><stop offset=".7" stop-color="#475158"/><stop offset=".8" stop-color="#434D54"/><stop offset="1" stop-color="#475157"/></linearGradient><linearGradient id="c" x1="57.073" y1="82.486" x2="27.987" y2="2.533" gradientUnits="userSpaceOnUse"><stop stop-color="#E1E3E1"/><stop offset=".1" stop-color="#C1C5C4"/><stop offset=".3" stop-color="#9BA1A2"/><stop offset=".5" stop-color="#7D8487"/><stop offset=".7" stop-color="#687074" stop-opacity="0"/><stop offset=".8" stop-color="#5B6469" stop-opacity="0"/><stop offset="1" stop-color="#576065" stop-opacity="0"/></linearGradient><linearGradient id="d" x1="24.172" y1="10.758" x2="60.828" y2="74.242" gradientUnits="userSpaceOnUse"><stop stop-color="#E1E3E1"/><stop offset=".1" stop-color="#C1C5C4"/><stop offset=".3" stop-color="#9BA1A2"/><stop offset=".5" stop-color="#7D8487"/><stop offset=".7" stop-color="#687074" stop-opacity="0"/><stop offset=".8" stop-color="#5B6469" stop-opacity="0"/><stop offset="1" stop-color="#576065" stop-opacity="0"/></linearGradient><linearGradient id="e" x1="59.102" y1="52.328" x2="56.844" y2="56.047" gradientUnits="userSpaceOnUse"><stop stop-color="#27343C"/><stop offset="1" stop-color="#00111E" stop-opacity="0"/></linearGradient><linearGradient id="f" x1="52.594" y1="38.648" x2="48.875" y2="32.672" gradientUnits="userSpaceOnUse"><stop offset=".1" stop-color="#02131F"/><stop offset=".9" stop-color="#02131F" stop-opacity="0"/></linearGradient><linearGradient id="g" x1="42.5" y1="48.344" x2="36.922" y2="49.938" gradientUnits="userSpaceOnUse"><stop offset=".2" stop-color="#02131F"/><stop offset=".9" stop-color="#02131F" stop-opacity="0"/></linearGradient><linearGradient id="b" x1="12.617" y1="17.398" x2="72.383" y2="67.602" gradientUnits="userSpaceOnUse"><stop stop-color="#0B1F2A"/><stop offset=".2" stop-color="#333F47"/><stop offset=".5" stop-color="#81898D"/><stop offset=".7" stop-color="#B3B8B8"/><stop offset=".8" stop-color="#DEE0DD"/><stop offset="1" stop-color="#FBFBFB"/></linearGradient><linearGradient id="i" x1="47.281" y1="22.844" x2="42.766" y2="23.375" gradientUnits="userSpaceOnUse"><stop offset=".3" stop-color="#02131F"/><stop offset=".8" stop-color="#02131F" stop-opacity="0"/></linearGradient><linearGradient id="j" x1="47.414" y1="22.711" x2="44.359" y2="23.109" gradientUnits="userSpaceOnUse"><stop offset=".4" stop-color="#27343C"/><stop offset="1" stop-color="#3B474E" stop-opacity="0"/></linearGradient><linearGradient id="k" x1="-.531" y1="43.695" x2="36.523" y2="65.078" gradientUnits="userSpaceOnUse"><stop stop-color="#25323B" stop-opacity="0"/><stop offset=".1" stop-color="#27343C"/></linearGradient><linearGradient id="l" x1="42.5" y1="49.672" x2="42.5" y2="43.297" gradientUnits="userSpaceOnUse"><stop offset=".3" stop-color="#A5ABAF"/><stop offset="1" stop-color="#A5ABAF" stop-opacity="0"/></linearGradient><linearGradient id="m" x1="63.352" y1="3.055" x2="63.352" y2="84.07" gradientUnits="userSpaceOnUse"><stop stop-color="#6B7378"/><stop offset=".2" stop-color="#333F47"/><stop offset=".5" stop-color="#27343C"/><stop offset=".8" stop-color="#333F47"/><stop offset="1" stop-color="#434D54"/></linearGradient><linearGradient id="n" x1="76.102" y1="10.758" x2="58.172" y2="37.055" gradientUnits="userSpaceOnUse"><stop offset=".7" stop-color="#49545B"/><stop offset=".8" stop-color="#fff" stop-opacity="0"/></linearGradient></defs></svg>